<svg viewBox="0 0 817 312" xmlns="http://www.w3.org/2000/svg"><g fill="none" fill-rule="evenodd"><text font-family="Philosopher-Bold, Philosopher" font-size="95" font-weight="bold" fill="#2F324C"><tspan x="108" y="141">Heather Fletcher</tspan></text><path d="M171.5 177H811" stroke="#2F324C" stroke-width="6" stroke-linecap="square"/><text font-family="Philosopher-Bold, Philosopher" font-size="53" font-weight="bold" letter-spacing="-.1" fill="#2F324C"><tspan x="491.36" y="248">Voice Teacher</tspan></text><path d="M28.43 279.48c-1.87 10.12 8.58 31.15 29.6 31.83 25.44.84 41.7-18.8 34.12-50.88l-37.96-177c-4.52-21.06-1.13-32.5 1.28-39.3C61.92 25.95 78 18.45 81.9 24.27c2.25 3.32 7.65 18.85-7.73 46.67-12 21.7-67.83 50.13-71.92 101.04-3.55 44.27 42.3 76.96 81.9 64.1 26.27-8.53 39.82-48.83 23.55-69.6-42.92-54.87-111.77 29.08-45.08 52.08-7.25-5.76-12.2-10.22-13.1-15.68-8.97-53.12 70.08-39.1 48.78 11.3-8.76 20.72-44.14 24.73-64.28 6.24-16.88-15.48-24.37-45.32-5.6-66.74 25.45-29 55.48-55.05 63.46-94.76 9.43-46.96-21.37-83.57-40.84-37.38-6.53 15.5-8.96 31.06-2.7 60.88l37.92 180.76c2.7 12.94.9 30.75-11.06 38.93-5.92 4.07-26.87 6.86-32-2.82" stroke="#2F324C" stroke-width=".5" fill="#2F324C" fill-rule="nonzero"/><path d="M28.14 281c.2-10.15 8.35-18.22 18.23-18.04 9.87.2 17.72 8.56 17.53 18.7-.12 6.58-3.64 12.58-9.24 15.76-5.6 3.17-12.4 3.05-17.88-.34-5.47-3.4-8.76-9.52-8.64-16.08z" stroke="#2F324C" stroke-width=".51" fill="#2F324C" fill-rule="nonzero"/></g></svg>